# xmcd
#
# Track frame offsets:
#	150
#	20202
#	40878
#	62638
#	84814
#	113304
#	132615
#	164028
#	182717
#	202110
#	223966
#
# Disc length: 3241 seconds
#
# Revision: 4
# Processed by: cddbd v1.4PL0 Copyright (c) Steve Scherf et al.
# Submitted via: MusicWizard 7.0.2
#
DISCID=a20ca70b
DTITLE=Mighty Sam McClain - Give It Up To Love
DYEAR=1993
DGENRE=Blues
TTITLE0=Give It Up To Love
TTITLE1=Too Proud
TTITLE2=What You Want Me To Do
TTITLE3=Here I Go Falling In Love Again
TTITLE4=Got To Have Your Love
TTITLE5=Child of The Mighty Mighty
TTITLE6=I'm Tired of These Blues
TTITLE7=I Feel Good
TTITLE8=Love Me If You Want To
TTITLE9=Don't Turn Back Now
TTITLE10=Lonesome Road
EXTD=
EXTT0=
EXTT1=
EXTT2=
EXTT3=
EXTT4=
EXTT5=
EXTT6=
EXTT7=
EXTT8=
EXTT9=
EXTT10=
PLAYORDER=
